<?xml version="1.0" encoding="us-ascii" standalone="no"?><svg xmlns="http://www.w3.org/2000/svg" xmlns:xlink="http://www.w3.org/1999/xlink" contentStyleType="text/css" height="1562px" preserveAspectRatio="none" style="width:2136px;height:1562px;background:#FFFFFF;" version="1.1" viewBox="0 0 2136 1562" width="2136px" zoomAndPan="magnify"><defs/><g><!--cluster 54afc4697cf03d8e3ec9a05b16380622--><g id="cluster_54afc4697cf03d8e3ec9a05b16380622"><polygon fill="none" points="327,16,337,6,765,6,765,677.94,755,687.94,327,687.94,327,16" style="stroke:#181818;stroke-width:1.0;"/><line style="stroke:#181818;stroke-width:1.0;" x1="755" x2="765" y1="16" y2="6"/><line style="stroke:#181818;stroke-width:1.0;" x1="327" x2="755" y1="16" y2="16"/><line style="stroke:#181818;stroke-width:1.0;" x1="755" x2="755" y1="16" y2="687.94"/><text fill="#000000" font-family="sans-serif" font-size="14" font-weight="bold" lengthAdjust="spacing" textLength="29" x="527.5" y="31.9951">Sns</text></g><!--cluster 6ebb7423072c5943f52c11274fd71b0b--><g id="cluster_6ebb7423072c5943f52c11274fd71b0b"><polygon fill="none" points="1598,530.45,1608,520.45,1950,520.45,1950,677.94,1940,687.94,1598,687.94,1598,530.45" style="stroke:#181818;stroke-width:1.0;"/><line style="stroke:#181818;stroke-width:1.0;" x1="1940" x2="1950" y1="530.45" y2="520.45"/><line style="stroke:#181818;stroke-width:1.0;" x1="1598" x2="1940" y1="530.45" y2="530.45"/><line style="stroke:#181818;stroke-width:1.0;" x1="1940" x2="1940" y1="530.45" y2="687.94"/><text fill="#000000" font-family="sans-serif" font-size="14" font-weight="bold" lengthAdjust="spacing" textLength="83" x="1728.5" y="546.4451">Dynamodb</text></g><!--cluster ba39a5f0aa547715c4df694144393752--><g id="cluster_ba39a5f0aa547715c4df694144393752"><polygon fill="none" points="431,1044.91,441,1034.91,789,1034.91,789,1192.39,779,1202.39,431,1202.39,431,1044.91" style="stroke:#181818;stroke-width:1.0;"/><line style="stroke:#181818;stroke-width:1.0;" x1="779" x2="789" y1="1044.91" y2="1034.91"/><line style="stroke:#181818;stroke-width:1.0;" x1="431" x2="779" y1="1044.91" y2="1044.91"/><line style="stroke:#181818;stroke-width:1.0;" x1="779" x2="779" y1="1044.91" y2="1202.39"/><text fill="#000000" font-family="sans-serif" font-size="14" font-weight="bold" lengthAdjust="spacing" textLength="92" x="560" y="1060.9051">Apigateway</text></g><!--cluster ef4ba2f338cdf4b615ed280ff0b2777d--><g id="cluster_ef4ba2f338cdf4b615ed280ff0b2777d"><polygon fill="none" points="1181,16,1191,6,1557,6,1557,163.49,1547,173.49,1181,173.49,1181,16" style="stroke:#181818;stroke-width:1.0;"/><line style="stroke:#181818;stroke-width:1.0;" x1="1547" x2="1557" y1="16" y2="6"/><line style="stroke:#181818;stroke-width:1.0;" x1="1181" x2="1547" y1="16" y2="16"/><line style="stroke:#181818;stroke-width:1.0;" x1="1547" x2="1547" y1="16" y2="173.49"/><text fill="#000000" font-family="sans-serif" font-size="14" font-weight="bold" lengthAdjust="spacing" textLength="29" x="1350.5" y="31.9951">Sqs</text></g><!--cluster 04a7da3c5b04cad85da1eebb92315b8b--><g id="cluster_04a7da3c5b04cad85da1eebb92315b8b"><polygon fill="none" points="897,530.45,907,520.45,1557,520.45,1557,1535.36,1547,1545.36,897,1545.36,897,530.45" style="stroke:#181818;stroke-width:1.0;"/><line style="stroke:#181818;stroke-width:1.0;" x1="1547" x2="1557" y1="530.45" y2="520.45"/><line style="stroke:#181818;stroke-width:1.0;" x1="897" x2="1547" y1="530.45" y2="530.45"/><line style="stroke:#181818;stroke-width:1.0;" x1="1547" x2="1547" y1="530.45" y2="1545.36"/><text fill="#000000" font-family="sans-serif" font-size="14" font-weight="bold" lengthAdjust="spacing" textLength="61" x="1192.5" y="546.4451">Lambda</text></g><!--entity e269f0591186eeda3c3b660e6859c1e2--><g id="elem_e269f0591186eeda3c3b660e6859c1e2"><rect fill="#F1F1F1" height="111.4844" rx="2.5" ry="2.5" style="stroke:#181818;stroke-width:0.5;" width="246" x="503" y="46"/><rect fill="#F1F1F1" height="10" style="stroke:#181818;stroke-width:0.5;" width="15" x="729" y="51"/><rect fill="#F1F1F1" height="2" style="stroke:#181818;stroke-width:0.5;" width="4" x="727" y="53"/><rect fill="#F1F1F1" height="2" style="stroke:#181818;stroke-width:0.5;" width="4" x="727" y="57"/><text fill="#000000" font-family="sans-serif" font-size="14" font-weight="bold" lengthAdjust="spacing" textLength="200" x="518" y="78.9951">sns_ecs-task-check-topic</text><text fill="#000000" font-family="sans-serif" font-size="14" lengthAdjust="spacing" textLength="4" x="518" y="95.292">&#160;</text><text fill="#000000" font-family="sans-serif" font-size="14" lengthAdjust="spacing" textLength="140" x="518" y="111.5889">terraform name: this</text><text fill="#000000" font-family="sans-serif" font-size="14" lengthAdjust="spacing" textLength="206" x="518" y="127.8857">terraform type: aws_sns_topic</text><text fill="#000000" font-family="sans-serif" font-size="14" lengthAdjust="spacing" textLength="4" x="518" y="144.1826">&#160;</text></g><!--entity 769e3828b92374c432c623adbaa63435--><g id="elem_769e3828b92374c432c623adbaa63435"><rect fill="#F1F1F1" height="111.4844" rx="2.5" ry="2.5" style="stroke:#181818;stroke-width:0.5;" width="246" x="503" y="217.49"/><rect fill="#F1F1F1" height="10" style="stroke:#181818;stroke-width:0.5;" width="15" x="729" y="222.49"/><rect fill="#F1F1F1" height="2" style="stroke:#181818;stroke-width:0.5;" width="4" x="727" y="224.49"/><rect fill="#F1F1F1" height="2" style="stroke:#181818;stroke-width:0.5;" width="4" x="727" y="228.49"/><text fill="#000000" font-family="sans-serif" font-size="14" font-weight="bold" lengthAdjust="spacing" textLength="190" x="518" y="250.4851">sns_rds-cpu-alarm-topic</text><text fill="#000000" font-family="sans-serif" font-size="14" lengthAdjust="spacing" textLength="4" x="518" y="266.782">&#160;</text><text fill="#000000" font-family="sans-serif" font-size="14" lengthAdjust="spacing" textLength="140" x="518" y="283.0789">terraform name: this</text><text fill="#000000" font-family="sans-serif" font-size="14" lengthAdjust="spacing" textLength="206" x="518" y="299.3757">terraform type: aws_sns_topic</text><text fill="#000000" font-family="sans-serif" font-size="14" lengthAdjust="spacing" textLength="4" x="518" y="315.6726">&#160;</text></g><!--entity c7db2c1ac73d00e6613b6d64ca066363--><g id="elem_c7db2c1ac73d00e6613b6d64ca066363"><rect fill="#F1F1F1" height="111.4844" rx="2.5" ry="2.5" style="stroke:#181818;stroke-width:0.5;" width="332" x="417" y="388.97"/><rect fill="#F1F1F1" height="10" style="stroke:#181818;stroke-width:0.5;" width="15" x="729" y="393.97"/><rect fill="#F1F1F1" height="2" style="stroke:#181818;stroke-width:0.5;" width="4" x="727" y="395.97"/><rect fill="#F1F1F1" height="2" style="stroke:#181818;stroke-width:0.5;" width="4" x="727" y="399.97"/><text fill="#000000" font-family="sans-serif" font-size="14" font-weight="bold" lengthAdjust="spacing" textLength="251" x="432" y="421.9651">sns_${local.graphql_sns_name}</text><text fill="#000000" font-family="sans-serif" font-size="14" lengthAdjust="spacing" textLength="4" x="432" y="438.262">&#160;</text><text fill="#000000" font-family="sans-serif" font-size="14" lengthAdjust="spacing" textLength="292" x="432" y="454.5589">terraform name: jacobs_graphql_sns_topic</text><text fill="#000000" font-family="sans-serif" font-size="14" lengthAdjust="spacing" textLength="206" x="432" y="470.8557">terraform type: aws_sns_topic</text><text fill="#000000" font-family="sans-serif" font-size="14" lengthAdjust="spacing" textLength="4" x="432" y="487.1526">&#160;</text></g><!--entity 9973069472c128845329546cd0f3f6ed--><g id="elem_9973069472c128845329546cd0f3f6ed"><rect fill="#F1F1F1" height="111.4844" rx="2.5" ry="2.5" style="stroke:#181818;stroke-width:0.5;" width="323" x="342.5" y="560.45"/><rect fill="#F1F1F1" height="10" style="stroke:#181818;stroke-width:0.5;" width="15" x="645.5" y="565.45"/><rect fill="#F1F1F1" height="2" style="stroke:#181818;stroke-width:0.5;" width="4" x="643.5" y="567.45"/><rect fill="#F1F1F1" height="2" style="stroke:#181818;stroke-width:0.5;" width="4" x="643.5" y="571.45"/><text fill="#000000" font-family="sans-serif" font-size="14" font-weight="bold" lengthAdjust="spacing" textLength="239" x="357.5" y="593.4451">sns_${local.adhoc_sns_name}</text><text fill="#000000" font-family="sans-serif" font-size="14" lengthAdjust="spacing" textLength="4" x="357.5" y="609.742">&#160;</text><text fill="#000000" font-family="sans-serif" font-size="14" lengthAdjust="spacing" textLength="283" x="357.5" y="626.0389">terraform name: jacobs_adhoc_sns_topic</text><text fill="#000000" font-family="sans-serif" font-size="14" lengthAdjust="spacing" textLength="206" x="357.5" y="642.3357">terraform type: aws_sns_topic</text><text fill="#000000" font-family="sans-serif" font-size="14" lengthAdjust="spacing" textLength="4" x="357.5" y="658.6326">&#160;</text></g><!--entity e378e0670cc8c35dd2a2acb841c1ffdf--><g id="elem_e378e0670cc8c35dd2a2acb841c1ffdf"><rect fill="#F1F1F1" height="111.4844" rx="2.5" ry="2.5" style="stroke:#181818;stroke-width:0.5;" width="321" x="1613.5" y="560.45"/><rect fill="#F1F1F1" height="10" style="stroke:#181818;stroke-width:0.5;" width="15" x="1914.5" y="565.45"/><rect fill="#F1F1F1" height="2" style="stroke:#181818;stroke-width:0.5;" width="4" x="1912.5" y="567.45"/><rect fill="#F1F1F1" height="2" style="stroke:#181818;stroke-width:0.5;" width="4" x="1912.5" y="571.45"/><text fill="#000000" font-family="sans-serif" font-size="14" font-weight="bold" lengthAdjust="spacing" textLength="232" x="1628.5" y="593.4451">dynamodb_product-inventory</text><text fill="#000000" font-family="sans-serif" font-size="14" lengthAdjust="spacing" textLength="4" x="1628.5" y="609.742">&#160;</text><text fill="#000000" font-family="sans-serif" font-size="14" lengthAdjust="spacing" textLength="281" x="1628.5" y="626.0389">terraform name: jacobs_dynamodb_table</text><text fill="#000000" font-family="sans-serif" font-size="14" lengthAdjust="spacing" textLength="254" x="1628.5" y="642.3357">terraform type: aws_dynamodb_table</text><text fill="#000000" font-family="sans-serif" font-size="14" lengthAdjust="spacing" textLength="4" x="1628.5" y="658.6326">&#160;</text></g><!--entity 3c1deb0b715aaa2c5901919a62951994--><g id="elem_3c1deb0b715aaa2c5901919a62951994"><rect fill="#F1F1F1" height="111.4844" rx="2.5" ry="2.5" style="stroke:#181818;stroke-width:0.5;" width="325" x="447.5" y="1074.91"/><rect fill="#F1F1F1" height="10" style="stroke:#181818;stroke-width:0.5;" width="15" x="752.5" y="1079.91"/><rect fill="#F1F1F1" height="2" style="stroke:#181818;stroke-width:0.5;" width="4" x="750.5" y="1081.91"/><rect fill="#F1F1F1" height="2" style="stroke:#181818;stroke-width:0.5;" width="4" x="750.5" y="1085.91"/><text fill="#000000" font-family="sans-serif" font-size="14" font-weight="bold" lengthAdjust="spacing" textLength="267" x="462.5" y="1107.9051">apigateway_jacobs-serverless-api</text><text fill="#000000" font-family="sans-serif" font-size="14" lengthAdjust="spacing" textLength="4" x="462.5" y="1124.202">&#160;</text><text fill="#000000" font-family="sans-serif" font-size="14" lengthAdjust="spacing" textLength="251" x="462.5" y="1140.4989">terraform name: jacobs_api_gateway</text><text fill="#000000" font-family="sans-serif" font-size="14" lengthAdjust="spacing" textLength="285" x="462.5" y="1156.7957">terraform type: aws_api_gateway_rest_api</text><text fill="#000000" font-family="sans-serif" font-size="14" lengthAdjust="spacing" textLength="4" x="462.5" y="1173.0926">&#160;</text></g><!--entity 600e99268524af51f4038d8ee3f30cfd--><g id="elem_600e99268524af51f4038d8ee3f30cfd"><rect fill="#F1F1F1" height="111.4844" rx="2.5" ry="2.5" style="stroke:#181818;stroke-width:0.5;" width="343" x="1197.5" y="46"/><rect fill="#F1F1F1" height="10" style="stroke:#181818;stroke-width:0.5;" width="15" x="1520.5" y="51"/><rect fill="#F1F1F1" height="2" style="stroke:#181818;stroke-width:0.5;" width="4" x="1518.5" y="53"/><rect fill="#F1F1F1" height="2" style="stroke:#181818;stroke-width:0.5;" width="4" x="1518.5" y="57"/><text fill="#000000" font-family="sans-serif" font-size="14" font-weight="bold" lengthAdjust="spacing" textLength="251" x="1212.5" y="78.9951">sqs_${local.graphql_sqs_name}</text><text fill="#000000" font-family="sans-serif" font-size="14" lengthAdjust="spacing" textLength="4" x="1212.5" y="95.292">&#160;</text><text fill="#000000" font-family="sans-serif" font-size="14" lengthAdjust="spacing" textLength="303" x="1212.5" y="111.5889">terraform name: jacobs_graphql_sqs_queue</text><text fill="#000000" font-family="sans-serif" font-size="14" lengthAdjust="spacing" textLength="217" x="1212.5" y="127.8857">terraform type: aws_sqs_queue</text><text fill="#000000" font-family="sans-serif" font-size="14" lengthAdjust="spacing" textLength="4" x="1212.5" y="144.1826">&#160;</text></g><!--entity 91fffa66302ad328b7993b485e1845e5--><g id="elem_91fffa66302ad328b7993b485e1845e5"><rect fill="#F1F1F1" height="111.4844" rx="2.5" ry="2.5" style="stroke:#181818;stroke-width:0.5;" width="381" x="1055.5" y="560.45"/><rect fill="#F1F1F1" height="10" style="stroke:#181818;stroke-width:0.5;" width="15" x="1416.5" y="565.45"/><rect fill="#F1F1F1" height="2" style="stroke:#181818;stroke-width:0.5;" width="4" x="1414.5" y="567.45"/><rect fill="#F1F1F1" height="2" style="stroke:#181818;stroke-width:0.5;" width="4" x="1414.5" y="571.45"/><text fill="#000000" font-family="sans-serif" font-size="14" font-weight="bold" lengthAdjust="spacing" textLength="309" x="1070.5" y="593.4451">lambda_${local.rest_api_lambda_name}</text><text fill="#000000" font-family="sans-serif" font-size="14" lengthAdjust="spacing" textLength="4" x="1070.5" y="609.742">&#160;</text><text fill="#000000" font-family="sans-serif" font-size="14" lengthAdjust="spacing" textLength="341" x="1070.5" y="626.0389">terraform name: jacobs_rest_api_lambda_function</text><text fill="#000000" font-family="sans-serif" font-size="14" lengthAdjust="spacing" textLength="253" x="1070.5" y="642.3357">terraform type: aws_lambda_function</text><text fill="#000000" font-family="sans-serif" font-size="14" lengthAdjust="spacing" textLength="4" x="1070.5" y="658.6326">&#160;</text></g><!--entity 86189cb60b2efc5bd2b7d610512eab04--><g id="elem_86189cb60b2efc5bd2b7d610512eab04"><rect fill="#F1F1F1" height="111.4844" rx="2.5" ry="2.5" style="stroke:#181818;stroke-width:0.5;" width="348" x="950" y="731.94"/><rect fill="#F1F1F1" height="10" style="stroke:#181818;stroke-width:0.5;" width="15" x="1278" y="736.94"/><rect fill="#F1F1F1" height="2" style="stroke:#181818;stroke-width:0.5;" width="4" x="1276" y="738.94"/><rect fill="#F1F1F1" height="2" style="stroke:#181818;stroke-width:0.5;" width="4" x="1276" y="742.94"/><text fill="#000000" font-family="sans-serif" font-size="14" font-weight="bold" lengthAdjust="spacing" textLength="308" x="965" y="764.9351">lambda_lambda_app_health_checker_v2</text><text fill="#000000" font-family="sans-serif" font-size="14" lengthAdjust="spacing" textLength="4" x="965" y="781.232">&#160;</text><text fill="#000000" font-family="sans-serif" font-size="14" lengthAdjust="spacing" textLength="140" x="965" y="797.5289">terraform name: this</text><text fill="#000000" font-family="sans-serif" font-size="14" lengthAdjust="spacing" textLength="253" x="965" y="813.8257">terraform type: aws_lambda_function</text><text fill="#000000" font-family="sans-serif" font-size="14" lengthAdjust="spacing" textLength="4" x="965" y="830.1226">&#160;</text></g><!--entity 5af95a64feeac3324aac09e4338e7a4b--><g id="elem_5af95a64feeac3324aac09e4338e7a4b"><rect fill="#F1F1F1" height="111.4844" rx="2.5" ry="2.5" style="stroke:#181818;stroke-width:0.5;" width="406" x="1098" y="903.42"/><rect fill="#F1F1F1" height="10" style="stroke:#181818;stroke-width:0.5;" width="15" x="1484" y="908.42"/><rect fill="#F1F1F1" height="2" style="stroke:#181818;stroke-width:0.5;" width="4" x="1482" y="910.42"/><rect fill="#F1F1F1" height="2" style="stroke:#181818;stroke-width:0.5;" width="4" x="1482" y="914.42"/><text fill="#000000" font-family="sans-serif" font-size="14" font-weight="bold" lengthAdjust="spacing" textLength="337" x="1113" y="936.4151">lambda_${local.graphql_api_lambda_name}</text><text fill="#000000" font-family="sans-serif" font-size="14" lengthAdjust="spacing" textLength="4" x="1113" y="952.712">&#160;</text><text fill="#000000" font-family="sans-serif" font-size="14" lengthAdjust="spacing" textLength="366" x="1113" y="969.0089">terraform name: jacobs_graphql_api_lambda_function</text><text fill="#000000" font-family="sans-serif" font-size="14" lengthAdjust="spacing" textLength="253" x="1113" y="985.3057">terraform type: aws_lambda_function</text><text fill="#000000" font-family="sans-serif" font-size="14" lengthAdjust="spacing" textLength="4" x="1113" y="1001.6026">&#160;</text></g><!--entity aed8c235d693dd99e45f63772f87bb05--><g id="elem_aed8c235d693dd99e45f63772f87bb05"><rect fill="#F1F1F1" height="111.4844" rx="2.5" ry="2.5" style="stroke:#181818;stroke-width:0.5;" width="394" x="1024" y="1074.91"/><rect fill="#F1F1F1" height="10" style="stroke:#181818;stroke-width:0.5;" width="15" x="1398" y="1079.91"/><rect fill="#F1F1F1" height="2" style="stroke:#181818;stroke-width:0.5;" width="4" x="1396" y="1081.91"/><rect fill="#F1F1F1" height="2" style="stroke:#181818;stroke-width:0.5;" width="4" x="1396" y="1085.91"/><text fill="#000000" font-family="sans-serif" font-size="14" font-weight="bold" lengthAdjust="spacing" textLength="354" x="1039" y="1107.9051">lambda_${local.shiny_service_name}_lambda</text><text fill="#000000" font-family="sans-serif" font-size="14" lengthAdjust="spacing" textLength="4" x="1039" y="1124.202">&#160;</text><text fill="#000000" font-family="sans-serif" font-size="14" lengthAdjust="spacing" textLength="260" x="1039" y="1140.4989">terraform name: shiny_restart_lambda</text><text fill="#000000" font-family="sans-serif" font-size="14" lengthAdjust="spacing" textLength="253" x="1039" y="1156.7957">terraform type: aws_lambda_function</text><text fill="#000000" font-family="sans-serif" font-size="14" lengthAdjust="spacing" textLength="4" x="1039" y="1173.0926">&#160;</text></g><!--entity 4b2d219c1ae18ceeed1cbc64c3c1385e--><g id="elem_4b2d219c1ae18ceeed1cbc64c3c1385e"><rect fill="#F1F1F1" height="111.4844" rx="2.5" ry="2.5" style="stroke:#181818;stroke-width:0.5;" width="400" x="913" y="1246.39"/><rect fill="#F1F1F1" height="10" style="stroke:#181818;stroke-width:0.5;" width="15" x="1293" y="1251.39"/><rect fill="#F1F1F1" height="2" style="stroke:#181818;stroke-width:0.5;" width="4" x="1291" y="1253.39"/><rect fill="#F1F1F1" height="2" style="stroke:#181818;stroke-width:0.5;" width="4" x="1291" y="1257.39"/><text fill="#000000" font-family="sans-serif" font-size="14" font-weight="bold" lengthAdjust="spacing" textLength="329" x="928" y="1279.3851">lambda_${local.lambda_name_dynamodb}</text><text fill="#000000" font-family="sans-serif" font-size="14" lengthAdjust="spacing" textLength="4" x="928" y="1295.682">&#160;</text><text fill="#000000" font-family="sans-serif" font-size="14" lengthAdjust="spacing" textLength="360" x="928" y="1311.9789">terraform name: jacobs_lambda_dynamodb_function</text><text fill="#000000" font-family="sans-serif" font-size="14" lengthAdjust="spacing" textLength="253" x="928" y="1328.2757">terraform type: aws_lambda_function</text><text fill="#000000" font-family="sans-serif" font-size="14" lengthAdjust="spacing" textLength="4" x="928" y="1344.5726">&#160;</text></g><!--entity 93e34d9e11e85c356536e5781028c4e3--><g id="elem_93e34d9e11e85c356536e5781028c4e3"><rect fill="#F1F1F1" height="111.4844" rx="2.5" ry="2.5" style="stroke:#181818;stroke-width:0.5;" width="434" x="1107" y="1417.88"/><rect fill="#F1F1F1" height="10" style="stroke:#181818;stroke-width:0.5;" width="15" x="1521" y="1422.88"/><rect fill="#F1F1F1" height="2" style="stroke:#181818;stroke-width:0.5;" width="4" x="1519" y="1424.88"/><rect fill="#F1F1F1" height="2" style="stroke:#181818;stroke-width:0.5;" width="4" x="1519" y="1428.88"/><text fill="#000000" font-family="sans-serif" font-size="14" font-weight="bold" lengthAdjust="spacing" textLength="374" x="1122" y="1450.8751">lambda_jacobs_adhoc_sns_ecs_lambda_function</text><text fill="#000000" font-family="sans-serif" font-size="14" lengthAdjust="spacing" textLength="4" x="1122" y="1467.172">&#160;</text><text fill="#000000" font-family="sans-serif" font-size="14" lengthAdjust="spacing" textLength="394" x="1122" y="1483.4689">terraform name: jacobs_adhoc_sns_ecs_lambda_function</text><text fill="#000000" font-family="sans-serif" font-size="14" lengthAdjust="spacing" textLength="253" x="1122" y="1499.7657">terraform type: aws_lambda_function</text><text fill="#000000" font-family="sans-serif" font-size="14" lengthAdjust="spacing" textLength="4" x="1122" y="1516.0626">&#160;</text></g><!--link e269f0591186eeda3c3b660e6859c1e2 to 769e3828b92374c432c623adbaa63435--><g id="link_e269f0591186eeda3c3b660e6859c1e2_769e3828b92374c432c623adbaa63435"><path codeLine="103" d="M626,157.77 C626,176.81 626,198.14 626,217.19 " fill="none" id="e269f0591186eeda3c3b660e6859c1e2-769e3828b92374c432c623adbaa63435" style="stroke:#181818;stroke-width:1.0;"/></g><!--link e269f0591186eeda3c3b660e6859c1e2 to c7db2c1ac73d00e6613b6d64ca066363--><g id="link_e269f0591186eeda3c3b660e6859c1e2_c7db2c1ac73d00e6613b6d64ca066363"><path codeLine="104" d="M533.8,157.93 C514.12,174.43 495.98,194.4 485,217.49 C463.72,262.23 467.85,282.48 485,328.97 C493.02,350.72 507.21,371.15 522.34,388.56 " fill="none" id="e269f0591186eeda3c3b660e6859c1e2-c7db2c1ac73d00e6613b6d64ca066363" style="stroke:#181818;stroke-width:1.0;"/></g><!--link e269f0591186eeda3c3b660e6859c1e2 to 9973069472c128845329546cd0f3f6ed--><g id="link_e269f0591186eeda3c3b660e6859c1e2_9973069472c128845329546cd0f3f6ed"><path codeLine="105" d="M530.58,157.78 C506.24,174.8 481.48,195.05 462,217.49 C405.98,282.02 394.88,305.85 375,388.97 C363.48,437.16 354.71,455.25 375,500.45 C385.25,523.29 402.54,543.43 421.18,560.21 " fill="none" id="e269f0591186eeda3c3b660e6859c1e2-9973069472c128845329546cd0f3f6ed" style="stroke:#181818;stroke-width:1.0;"/></g><!--link e269f0591186eeda3c3b660e6859c1e2 to 86189cb60b2efc5bd2b7d610512eab04--><g id="link_e269f0591186eeda3c3b660e6859c1e2_86189cb60b2efc5bd2b7d610512eab04"><path codeLine="106" d="M749.2,119.85 C942.93,154.33 1311.38,252.49 1454,512.45 C1493.22,583.95 1503.43,631.08 1454,695.94 C1433.61,722.7 1366.67,743.54 1298.37,758.46 " fill="none" id="e269f0591186eeda3c3b660e6859c1e2-86189cb60b2efc5bd2b7d610512eab04" style="stroke:#181818;stroke-width:1.0;"/></g><!--link e269f0591186eeda3c3b660e6859c1e2 to 91fffa66302ad328b7993b485e1845e5--><g id="link_e269f0591186eeda3c3b660e6859c1e2_91fffa66302ad328b7993b485e1845e5"><path codeLine="107" d="M749.24,152.23 C856.75,200.19 1011.73,281.42 1118,388.97 C1167,438.56 1203.48,510.7 1224.7,560.1 " fill="none" id="e269f0591186eeda3c3b660e6859c1e2-91fffa66302ad328b7993b485e1845e5" style="stroke:#181818;stroke-width:1.0;"/></g><!--link e269f0591186eeda3c3b660e6859c1e2 to 93e34d9e11e85c356536e5781028c4e3--><g id="link_e269f0591186eeda3c3b660e6859c1e2_93e34d9e11e85c356536e5781028c4e3"><path codeLine="108" d="M749.33,123.52 C861.55,141.65 1031.93,167.21 1181,181.49 C1260.74,189.12 1827.4,185.88 1901,217.49 C2032.17,273.81 2129,300.96 2129,443.71 C2129,443.71 2129,443.71 2129,1131.65 C2129,1267.63 2041.63,1291.41 1923,1357.88 C1806.84,1422.96 1660.27,1451.79 1541.19,1464.28 " fill="none" id="e269f0591186eeda3c3b660e6859c1e2-93e34d9e11e85c356536e5781028c4e3" style="stroke:#181818;stroke-width:1.0;"/></g><!--link e269f0591186eeda3c3b660e6859c1e2 to aed8c235d693dd99e45f63772f87bb05--><g id="link_e269f0591186eeda3c3b660e6859c1e2_aed8c235d693dd99e45f63772f87bb05"><path codeLine="109" d="M749.39,122.98 C861.64,140.74 1032.05,166.07 1181,181.49 C1303.05,194.11 1616.15,177.03 1732,217.49 C1898.5,275.62 2058,267.35 2058,443.71 C2058,443.71 2058,443.71 2058,617.2 C2058,915.8 1665.75,1045.72 1418.3,1097.98 " fill="none" id="e269f0591186eeda3c3b660e6859c1e2-aed8c235d693dd99e45f63772f87bb05" style="stroke:#181818;stroke-width:1.0;"/></g><!--link e269f0591186eeda3c3b660e6859c1e2 to 4b2d219c1ae18ceeed1cbc64c3c1385e--><g id="link_e269f0591186eeda3c3b660e6859c1e2_4b2d219c1ae18ceeed1cbc64c3c1385e"><path codeLine="110" d="M502.79,123.08 C340.93,157.65 77,244.56 77,443.71 C77,443.71 77,443.71 77,960.16 C77,1086.32 106.15,1140.24 211,1210.39 C267.94,1248.49 664.72,1276.74 912.7,1290.92 " fill="none" id="e269f0591186eeda3c3b660e6859c1e2-4b2d219c1ae18ceeed1cbc64c3c1385e" style="stroke:#181818;stroke-width:1.0;"/></g><!--link e269f0591186eeda3c3b660e6859c1e2 to 5af95a64feeac3324aac09e4338e7a4b--><g id="link_e269f0591186eeda3c3b660e6859c1e2_5af95a64feeac3324aac09e4338e7a4b"><path codeLine="111" d="M749.47,122.24 C861.77,139.5 1032.21,164.52 1181,181.49 C1273.41,192.02 1512.04,181.97 1598,217.49 C1786.64,295.42 1863.68,327.49 1950,512.45 C1984.49,586.35 1992.73,626.48 1950,695.94 C1856.71,847.57 1657.65,911.53 1504.44,938.5 " fill="none" id="e269f0591186eeda3c3b660e6859c1e2-5af95a64feeac3324aac09e4338e7a4b" style="stroke:#181818;stroke-width:1.0;"/></g><!--link e269f0591186eeda3c3b660e6859c1e2 to e378e0670cc8c35dd2a2acb841c1ffdf--><g id="link_e269f0591186eeda3c3b660e6859c1e2_e378e0670cc8c35dd2a2acb841c1ffdf"><path codeLine="112" d="M749.28,121.46 C861.65,138.22 1032.28,162.95 1181,181.49 C1255.3,190.75 1452.22,178.27 1516,217.49 C1646.41,297.66 1723.52,471.28 1755.93,560.23 " fill="none" id="e269f0591186eeda3c3b660e6859c1e2-e378e0670cc8c35dd2a2acb841c1ffdf" style="stroke:#181818;stroke-width:1.0;"/></g><!--link 769e3828b92374c432c623adbaa63435 to c7db2c1ac73d00e6613b6d64ca066363--><g id="link_769e3828b92374c432c623adbaa63435_c7db2c1ac73d00e6613b6d64ca066363"><path codeLine="113" d="M612.04,329.25 C607.21,348.3 601.8,369.63 596.96,388.67 " fill="none" id="769e3828b92374c432c623adbaa63435-c7db2c1ac73d00e6613b6d64ca066363" style="stroke:#181818;stroke-width:1.0;"/></g><!--link 769e3828b92374c432c623adbaa63435 to 9973069472c128845329546cd0f3f6ed--><g id="link_769e3828b92374c432c623adbaa63435_9973069472c128845329546cd0f3f6ed"><path codeLine="114" d="M502.75,308.08 C462.93,325.5 423.13,351.28 400,388.97 C374.08,431.2 382.17,454.23 400,500.45 C408.47,522.4 423.3,542.75 439.15,560.03 " fill="none" id="769e3828b92374c432c623adbaa63435-9973069472c128845329546cd0f3f6ed" style="stroke:#181818;stroke-width:1.0;"/></g><!--link 769e3828b92374c432c623adbaa63435 to 86189cb60b2efc5bd2b7d610512eab04--><g id="link_769e3828b92374c432c623adbaa63435_86189cb60b2efc5bd2b7d610512eab04"><path codeLine="115" d="M749.27,308.63 C796.42,326.56 847.94,352.56 886,388.97 C996,494.22 950.89,571.08 1038,695.94 C1046.57,708.22 1056.77,720.47 1067.09,731.82 " fill="none" id="769e3828b92374c432c623adbaa63435-86189cb60b2efc5bd2b7d610512eab04" style="stroke:#181818;stroke-width:1.0;"/></g><!--link 769e3828b92374c432c623adbaa63435 to 91fffa66302ad328b7993b485e1845e5--><g id="link_769e3828b92374c432c623adbaa63435_91fffa66302ad328b7993b485e1845e5"><path codeLine="116" d="M749.22,292.1 C832.43,308.18 942.3,337.48 1028,388.97 C1101.64,433.21 1167.18,508.64 1206.72,560.14 " fill="none" id="769e3828b92374c432c623adbaa63435-91fffa66302ad328b7993b485e1845e5" style="stroke:#181818;stroke-width:1.0;"/></g><!--link 769e3828b92374c432c623adbaa63435 to 93e34d9e11e85c356536e5781028c4e3--><g id="link_769e3828b92374c432c623adbaa63435_93e34d9e11e85c356536e5781028c4e3"><path codeLine="117" d="M502.77,286.86 C321.96,312.97 6,390.7 6,615.2 C6,615.2 6,615.2 6,1131.65 C6,1173.85 143.18,1323.34 214,1357.88 C366.37,1432.17 829.13,1458.51 1106.71,1467.74 " fill="none" id="769e3828b92374c432c623adbaa63435-93e34d9e11e85c356536e5781028c4e3" style="stroke:#181818;stroke-width:1.0;"/></g><!--link 769e3828b92374c432c623adbaa63435 to aed8c235d693dd99e45f63772f87bb05--><g id="link_769e3828b92374c432c623adbaa63435_aed8c235d693dd99e45f63772f87bb05"><path codeLine="118" d="M708.13,329.39 C729.15,346.53 750.25,366.82 766,388.97 C941.09,635.16 819.97,798.73 1031,1014.91 C1053.34,1037.79 1081.17,1057.9 1108.58,1074.63 " fill="none" id="769e3828b92374c432c623adbaa63435-aed8c235d693dd99e45f63772f87bb05" style="stroke:#181818;stroke-width:1.0;"/></g><!--link 769e3828b92374c432c623adbaa63435 to 4b2d219c1ae18ceeed1cbc64c3c1385e--><g id="link_769e3828b92374c432c623adbaa63435_4b2d219c1ae18ceeed1cbc64c3c1385e"><path codeLine="119" d="M502.51,317.63 C382.74,368.54 219,465.52 219,615.2 C219,615.2 219,615.2 219,960.16 C219,1077.62 212.49,1136.76 304,1210.39 C350.56,1247.85 688.69,1275.42 912.82,1289.82 " fill="none" id="769e3828b92374c432c623adbaa63435-4b2d219c1ae18ceeed1cbc64c3c1385e" style="stroke:#181818;stroke-width:1.0;"/></g><!--link 769e3828b92374c432c623adbaa63435 to 5af95a64feeac3324aac09e4338e7a4b--><g id="link_769e3828b92374c432c623adbaa63435_5af95a64feeac3324aac09e4338e7a4b"><path codeLine="120" d="M749.44,291.66 C851.05,308.66 997.46,339.34 1118,388.97 C1205.36,424.94 1209.16,471.21 1299,500.45 C1315.43,505.8 1442.27,499.78 1454,512.45 C1557.92,624.73 1428.38,810.8 1351,902.95 " fill="none" id="769e3828b92374c432c623adbaa63435-5af95a64feeac3324aac09e4338e7a4b" style="stroke:#181818;stroke-width:1.0;"/></g><!--link 769e3828b92374c432c623adbaa63435 to e378e0670cc8c35dd2a2acb841c1ffdf--><g id="link_769e3828b92374c432c623adbaa63435_e378e0670cc8c35dd2a2acb841c1ffdf"><path codeLine="121" d="M749.41,286.06 C886.69,301.3 1114.03,332.78 1303,388.97 C1434.93,428.2 1463.44,451.81 1587,512.45 C1616.93,527.14 1648.93,544.2 1677.84,560.15 " fill="none" id="769e3828b92374c432c623adbaa63435-e378e0670cc8c35dd2a2acb841c1ffdf" style="stroke:#181818;stroke-width:1.0;"/></g><!--link c7db2c1ac73d00e6613b6d64ca066363 to 9973069472c128845329546cd0f3f6ed--><g id="link_c7db2c1ac73d00e6613b6d64ca066363_9973069472c128845329546cd0f3f6ed"><path codeLine="122" d="M557.35,500.74 C548.48,519.78 538.53,541.11 529.66,560.16 " fill="none" id="c7db2c1ac73d00e6613b6d64ca066363-9973069472c128845329546cd0f3f6ed" style="stroke:#181818;stroke-width:1.0;"/></g><!--link c7db2c1ac73d00e6613b6d64ca066363 to 86189cb60b2efc5bd2b7d610512eab04--><g id="link_c7db2c1ac73d00e6613b6d64ca066363_86189cb60b2efc5bd2b7d610512eab04"><path codeLine="123" d="M749.35,480.91 C772.34,489.34 794.92,499.71 815,512.45 C906.61,570.57 893.04,626.02 976,695.94 C990.98,708.56 1007.89,720.63 1024.79,731.6 " fill="none" id="c7db2c1ac73d00e6613b6d64ca066363-86189cb60b2efc5bd2b7d610512eab04" style="stroke:#181818;stroke-width:1.0;"/></g><!--link c7db2c1ac73d00e6613b6d64ca066363 to 91fffa66302ad328b7993b485e1845e5--><g id="link_c7db2c1ac73d00e6613b6d64ca066363_91fffa66302ad328b7993b485e1845e5"><path codeLine="124" d="M749.06,469.31 C814.4,480.16 889.74,494.63 957,512.45 C1006.16,525.48 1058.86,543.09 1105.61,560.04 " fill="none" id="c7db2c1ac73d00e6613b6d64ca066363-91fffa66302ad328b7993b485e1845e5" style="stroke:#181818;stroke-width:1.0;"/></g><!--link c7db2c1ac73d00e6613b6d64ca066363 to 93e34d9e11e85c356536e5781028c4e3--><g id="link_c7db2c1ac73d00e6613b6d64ca066363_93e34d9e11e85c356536e5781028c4e3"><path codeLine="125" d="M416.83,464.48 C348.6,475.17 279.61,490.84 254,512.45 C154.15,596.74 148,656.01 148,786.68 C148,786.68 148,786.68 148,1131.65 C148,1251.03 360.24,1322.06 465,1357.88 C675.7,1429.91 929.88,1457.01 1106.85,1467.05 " fill="none" id="c7db2c1ac73d00e6613b6d64ca066363-93e34d9e11e85c356536e5781028c4e3" style="stroke:#181818;stroke-width:1.0;"/></g><!--link c7db2c1ac73d00e6613b6d64ca066363 to aed8c235d693dd99e45f63772f87bb05--><g id="link_c7db2c1ac73d00e6613b6d64ca066363_aed8c235d693dd99e45f63772f87bb05"><path codeLine="126" d="M674.28,500.89 C677.48,504.56 680.41,508.41 683,512.45 C805.04,702.82 600.55,857.61 763,1014.91 C778.29,1029.71 837.15,1022.66 858,1026.91 C920.1,1039.54 987.1,1057.3 1046.44,1074.51 " fill="none" id="c7db2c1ac73d00e6613b6d64ca066363-aed8c235d693dd99e45f63772f87bb05" style="stroke:#181818;stroke-width:1.0;"/></g><!--link c7db2c1ac73d00e6613b6d64ca066363 to 4b2d219c1ae18ceeed1cbc64c3c1385e--><g id="link_c7db2c1ac73d00e6613b6d64ca066363_4b2d219c1ae18ceeed1cbc64c3c1385e"><path codeLine="127" d="M416.71,472.15 C374.81,482.35 337.99,495.67 325,512.45 C207.18,664.63 251.51,1043.2 431,1210.39 C499.12,1273.84 737.13,1293.67 912.89,1299.47 " fill="none" id="c7db2c1ac73d00e6613b6d64ca066363-4b2d219c1ae18ceeed1cbc64c3c1385e" style="stroke:#181818;stroke-width:1.0;"/></g><!--link c7db2c1ac73d00e6613b6d64ca066363 to 5af95a64feeac3324aac09e4338e7a4b--><g id="link_c7db2c1ac73d00e6613b6d64ca066363_5af95a64feeac3324aac09e4338e7a4b"><path codeLine="128" d="M731.25,500.73 C735.75,504.4 740.02,508.3 744,512.45 C804.06,575.14 767.82,620.62 811,695.94 C853.31,769.74 862.36,796.03 933,843.42 C982.18,876.42 1041.34,900.32 1097.7,917.46 " fill="none" id="c7db2c1ac73d00e6613b6d64ca066363-5af95a64feeac3324aac09e4338e7a4b" style="stroke:#181818;stroke-width:1.0;"/></g><!--link c7db2c1ac73d00e6613b6d64ca066363 to e378e0670cc8c35dd2a2acb841c1ffdf--><g id="link_c7db2c1ac73d00e6613b6d64ca066363_e378e0670cc8c35dd2a2acb841c1ffdf"><path codeLine="129" d="M749.49,459.14 C899.22,470.95 1125.23,488.14 1322,500.45 C1374.19,503.72 1506.29,499.69 1557,512.45 C1598.53,522.91 1641.68,541.52 1678.46,560.06 " fill="none" id="c7db2c1ac73d00e6613b6d64ca066363-e378e0670cc8c35dd2a2acb841c1ffdf" style="stroke:#181818;stroke-width:1.0;"/></g><!--link 9973069472c128845329546cd0f3f6ed to 93e34d9e11e85c356536e5781028c4e3--><g id="link_9973069472c128845329546cd0f3f6ed_93e34d9e11e85c356536e5781028c4e3"><path codeLine="130" d="M474.28,672.19 C417.78,785.06 310.78,1046.03 431,1210.39 C510.92,1319.66 868.8,1398.23 1106.53,1439.48 " fill="none" id="9973069472c128845329546cd0f3f6ed-93e34d9e11e85c356536e5781028c4e3" style="stroke:#181818;stroke-width:1.0;"/></g><!--link 9973069472c128845329546cd0f3f6ed to 86189cb60b2efc5bd2b7d610512eab04--><g id="link_9973069472c128845329546cd0f3f6ed_86189cb60b2efc5bd2b7d610512eab04"><path codeLine="131" d="M665.68,661.39 C752.87,685.23 860.54,714.66 949.6,739.01 " fill="none" id="9973069472c128845329546cd0f3f6ed-86189cb60b2efc5bd2b7d610512eab04" style="stroke:#181818;stroke-width:1.0;"/></g><!--link 9973069472c128845329546cd0f3f6ed to 91fffa66302ad328b7993b485e1845e5--><g id="link_9973069472c128845329546cd0f3f6ed_91fffa66302ad328b7993b485e1845e5"><path codeLine="132" d="M665.95,616.2 C795.67,616.2 925.39,616.2 1055.1,616.2 " fill="none" id="9973069472c128845329546cd0f3f6ed-91fffa66302ad328b7993b485e1845e5" style="stroke:#181818;stroke-width:1.0;"/></g><!--link 9973069472c128845329546cd0f3f6ed to aed8c235d693dd99e45f63772f87bb05--><g id="link_9973069472c128845329546cd0f3f6ed_aed8c235d693dd99e45f63772f87bb05"><path codeLine="133" d="M522.31,672.33 C556.43,771.49 631.73,973.49 692,1014.91 C721.39,1035.1 816.88,1020.76 852,1026.91 C917.5,1038.37 988.14,1056.55 1049.9,1074.46 " fill="none" id="9973069472c128845329546cd0f3f6ed-aed8c235d693dd99e45f63772f87bb05" style="stroke:#181818;stroke-width:1.0;"/></g><!--link 9973069472c128845329546cd0f3f6ed to 4b2d219c1ae18ceeed1cbc64c3c1385e--><g id="link_9973069472c128845329546cd0f3f6ed_4b2d219c1ae18ceeed1cbc64c3c1385e"><path codeLine="134" d="M498.75,672.08 C493.64,761.74 498.9,937.4 607,1014.91 C639.94,1038.52 755.48,1004.12 789,1026.91 C863.64,1077.64 809.77,1149.08 876,1210.39 C890.87,1224.16 908.05,1235.91 926.23,1245.92 " fill="none" id="9973069472c128845329546cd0f3f6ed-4b2d219c1ae18ceeed1cbc64c3c1385e" style="stroke:#181818;stroke-width:1.0;"/></g><!--link 9973069472c128845329546cd0f3f6ed to 5af95a64feeac3324aac09e4338e7a4b--><g id="link_9973069472c128845329546cd0f3f6ed_5af95a64feeac3324aac09e4338e7a4b"><path codeLine="135" d="M568.92,672.29 C632.58,723.63 734.31,798.79 834,843.42 C916.96,880.56 1013.83,906.87 1097.76,924.83 " fill="none" id="9973069472c128845329546cd0f3f6ed-5af95a64feeac3324aac09e4338e7a4b" style="stroke:#181818;stroke-width:1.0;"/></g><!--link 9973069472c128845329546cd0f3f6ed to e378e0670cc8c35dd2a2acb841c1ffdf--><g id="link_9973069472c128845329546cd0f3f6ed_e378e0670cc8c35dd2a2acb841c1ffdf"><path codeLine="136" d="M665.83,562.47 C740.6,540.37 831.12,517.41 914.5,506.45 C948.93,501.93 1505.25,500.75 1539.5,506.45 C1589.93,514.86 1641.85,537.46 1683.97,559.99 " fill="none" id="9973069472c128845329546cd0f3f6ed-e378e0670cc8c35dd2a2acb841c1ffdf" style="stroke:#181818;stroke-width:1.0;"/></g><!--link e378e0670cc8c35dd2a2acb841c1ffdf to 86189cb60b2efc5bd2b7d610512eab04--><g id="link_e378e0670cc8c35dd2a2acb841c1ffdf_86189cb60b2efc5bd2b7d610512eab04"><path codeLine="137" d="M1630.78,672.4 C1606.35,680.88 1581.09,689.08 1557,695.94 C1472.88,719.89 1377.92,740.48 1298.41,755.97 " fill="none" id="e378e0670cc8c35dd2a2acb841c1ffdf-86189cb60b2efc5bd2b7d610512eab04" style="stroke:#181818;stroke-width:1.0;"/></g><!--link e378e0670cc8c35dd2a2acb841c1ffdf to 91fffa66302ad328b7993b485e1845e5--><g id="link_e378e0670cc8c35dd2a2acb841c1ffdf_91fffa66302ad328b7993b485e1845e5"><path codeLine="138" d="M1613.29,616.2 C1554.46,616.2 1495.62,616.2 1436.78,616.2 " fill="none" id="e378e0670cc8c35dd2a2acb841c1ffdf-91fffa66302ad328b7993b485e1845e5" style="stroke:#181818;stroke-width:1.0;"/></g><!--link e378e0670cc8c35dd2a2acb841c1ffdf to 93e34d9e11e85c356536e5781028c4e3--><g id="link_e378e0670cc8c35dd2a2acb841c1ffdf_93e34d9e11e85c356536e5781028c4e3"><path codeLine="139" d="M1835.61,672.16 C1898.52,734.64 1987,843 1987,958.16 C1987,958.16 1987,958.16 1987,1131.65 C1987,1336.15 1734.45,1418.11 1541.09,1450.88 " fill="none" id="e378e0670cc8c35dd2a2acb841c1ffdf-93e34d9e11e85c356536e5781028c4e3" style="stroke:#181818;stroke-width:1.0;"/></g><!--link e378e0670cc8c35dd2a2acb841c1ffdf to aed8c235d693dd99e45f63772f87bb05--><g id="link_e378e0670cc8c35dd2a2acb841c1ffdf_aed8c235d693dd99e45f63772f87bb05"><path codeLine="140" d="M1754.34,672.43 C1720.64,759 1643.5,925.9 1522,1014.91 C1489.07,1039.03 1450.44,1058.73 1412.04,1074.56 " fill="none" id="e378e0670cc8c35dd2a2acb841c1ffdf-aed8c235d693dd99e45f63772f87bb05" style="stroke:#181818;stroke-width:1.0;"/></g><!--link e378e0670cc8c35dd2a2acb841c1ffdf to 4b2d219c1ae18ceeed1cbc64c3c1385e--><g id="link_e378e0670cc8c35dd2a2acb841c1ffdf_4b2d219c1ae18ceeed1cbc64c3c1385e"><path codeLine="141" d="M1769.12,672.19 C1763.43,719.26 1751.48,788.02 1727,843.42 C1645.59,1027.68 1627.33,1096.76 1461,1210.39 C1417.31,1240.24 1364.4,1260.27 1313.18,1273.71 " fill="none" id="e378e0670cc8c35dd2a2acb841c1ffdf-4b2d219c1ae18ceeed1cbc64c3c1385e" style="stroke:#181818;stroke-width:1.0;"/></g><!--link e378e0670cc8c35dd2a2acb841c1ffdf to 5af95a64feeac3324aac09e4338e7a4b--><g id="link_e378e0670cc8c35dd2a2acb841c1ffdf_5af95a64feeac3324aac09e4338e7a4b"><path codeLine="142" d="M1726.88,672.43 C1710.94,691.23 1693.12,712.43 1677,731.94 C1636.44,781.03 1638.21,805.57 1587,843.42 C1554.73,867.27 1516.83,887 1479.35,902.97 " fill="none" id="e378e0670cc8c35dd2a2acb841c1ffdf-5af95a64feeac3324aac09e4338e7a4b" style="stroke:#181818;stroke-width:1.0;"/></g><!--link 3c1deb0b715aaa2c5901919a62951994 to 4b2d219c1ae18ceeed1cbc64c3c1385e--><g id="link_3c1deb0b715aaa2c5901919a62951994_4b2d219c1ae18ceeed1cbc64c3c1385e"><path codeLine="143" d="M737.77,1186.86 C758.43,1195.13 779.7,1203.27 800,1210.39 C836.17,1223.09 875.12,1235.42 912.84,1246.69 " fill="none" id="3c1deb0b715aaa2c5901919a62951994-4b2d219c1ae18ceeed1cbc64c3c1385e" style="stroke:#181818;stroke-width:1.0;"/></g><!--link 91fffa66302ad328b7993b485e1845e5 to 86189cb60b2efc5bd2b7d610512eab04--><g id="link_91fffa66302ad328b7993b485e1845e5_86189cb60b2efc5bd2b7d610512eab04"><path codeLine="144" d="M1206.39,672.22 C1192.68,691.26 1177.33,712.6 1163.62,731.64 " fill="none" id="91fffa66302ad328b7993b485e1845e5-86189cb60b2efc5bd2b7d610512eab04" style="stroke:#181818;stroke-width:1.0;"/></g><!--link 91fffa66302ad328b7993b485e1845e5 to 93e34d9e11e85c356536e5781028c4e3--><g id="link_91fffa66302ad328b7993b485e1845e5_93e34d9e11e85c356536e5781028c4e3"><path codeLine="145" d="M1326.2,672.35 C1392.79,723.46 1482.73,806.12 1522,903.42 C1598.59,1093.19 1552.33,1181.83 1448,1357.88 C1434.92,1379.95 1416.29,1400.34 1397.44,1417.62 " fill="none" id="91fffa66302ad328b7993b485e1845e5-93e34d9e11e85c356536e5781028c4e3" style="stroke:#181818;stroke-width:1.0;"/></g><!--link 91fffa66302ad328b7993b485e1845e5 to aed8c235d693dd99e45f63772f87bb05--><g id="link_91fffa66302ad328b7993b485e1845e5_aed8c235d693dd99e45f63772f87bb05"><path codeLine="146" d="M1288.29,672.06 C1320.73,721.29 1353.92,793.32 1315,843.42 C1248.87,928.55 1146.13,818.29 1080,903.42 C1049.6,942.55 1058.72,970.16 1080,1014.91 C1090.98,1037.99 1109.12,1057.96 1128.8,1074.46 " fill="none" id="91fffa66302ad328b7993b485e1845e5-aed8c235d693dd99e45f63772f87bb05" style="stroke:#181818;stroke-width:1.0;"/></g><!--link 91fffa66302ad328b7993b485e1845e5 to 4b2d219c1ae18ceeed1cbc64c3c1385e--><g id="link_91fffa66302ad328b7993b485e1845e5_4b2d219c1ae18ceeed1cbc64c3c1385e"><path codeLine="147" d="M1055.39,647.8 C1008.05,664.77 962.46,691.1 933,731.94 C870.78,818.18 867.37,1120.38 924,1210.39 C932.72,1224.25 944.22,1236.05 957.24,1246.07 " fill="none" id="91fffa66302ad328b7993b485e1845e5-4b2d219c1ae18ceeed1cbc64c3c1385e" style="stroke:#181818;stroke-width:1.0;"/></g><!--link 91fffa66302ad328b7993b485e1845e5 to 5af95a64feeac3324aac09e4338e7a4b--><g id="link_91fffa66302ad328b7993b485e1845e5_5af95a64feeac3324aac09e4338e7a4b"><path codeLine="148" d="M1305.79,672.14 C1320.86,689.63 1335.02,710.14 1343,731.94 C1363.67,788.39 1345.52,856.66 1327.05,903.33 " fill="none" id="91fffa66302ad328b7993b485e1845e5-5af95a64feeac3324aac09e4338e7a4b" style="stroke:#181818;stroke-width:1.0;"/></g><!--link 86189cb60b2efc5bd2b7d610512eab04 to 93e34d9e11e85c356536e5781028c4e3--><g id="link_86189cb60b2efc5bd2b7d610512eab04_93e34d9e11e85c356536e5781028c4e3"><path codeLine="149" d="M1070.19,843.88 C1055.47,861.67 1040.87,882.28 1031,903.42 C1002.07,965.43 961.37,1159.41 1007,1210.39 C1103.63,1318.35 1234.37,1138.43 1331,1246.39 C1352.75,1270.69 1343.35,1358.6 1334.05,1417.41 " fill="none" id="86189cb60b2efc5bd2b7d610512eab04-93e34d9e11e85c356536e5781028c4e3" style="stroke:#181818;stroke-width:1.0;"/></g><!--link 86189cb60b2efc5bd2b7d610512eab04 to aed8c235d693dd99e45f63772f87bb05--><g id="link_86189cb60b2efc5bd2b7d610512eab04_aed8c235d693dd99e45f63772f87bb05"><path codeLine="150" d="M1081.36,843.8 C1069.84,861.82 1058.93,882.58 1053,903.42 C1039.45,951.08 1029.87,971.09 1053,1014.91 C1065.53,1038.64 1085.43,1058.4 1107.22,1074.45 " fill="none" id="86189cb60b2efc5bd2b7d610512eab04-aed8c235d693dd99e45f63772f87bb05" style="stroke:#181818;stroke-width:1.0;"/></g><!--link 86189cb60b2efc5bd2b7d610512eab04 to 4b2d219c1ae18ceeed1cbc64c3c1385e--><g id="link_86189cb60b2efc5bd2b7d610512eab04_4b2d219c1ae18ceeed1cbc64c3c1385e"><path codeLine="151" d="M1028.87,843.72 C1008.77,860.18 990.26,880.16 979,903.42 C919.57,1026.23 915.06,1089.87 979,1210.39 C986.18,1223.92 996.37,1235.8 1007.97,1246.12 " fill="none" id="86189cb60b2efc5bd2b7d610512eab04-4b2d219c1ae18ceeed1cbc64c3c1385e" style="stroke:#181818;stroke-width:1.0;"/></g><!--link 86189cb60b2efc5bd2b7d610512eab04 to 5af95a64feeac3324aac09e4338e7a4b--><g id="link_86189cb60b2efc5bd2b7d610512eab04_5af95a64feeac3324aac09e4338e7a4b"><path codeLine="152" d="M1181.47,843.71 C1201.35,862.75 1223.63,884.08 1243.52,903.12 " fill="none" id="86189cb60b2efc5bd2b7d610512eab04-5af95a64feeac3324aac09e4338e7a4b" style="stroke:#181818;stroke-width:1.0;"/></g><!--link 5af95a64feeac3324aac09e4338e7a4b to 93e34d9e11e85c356536e5781028c4e3--><g id="link_5af95a64feeac3324aac09e4338e7a4b_93e34d9e11e85c356536e5781028c4e3"><path codeLine="153" d="M1451.86,1015.26 C1455.18,1018.9 1458.25,1022.77 1461,1026.91 C1544.05,1151.53 1435.52,1328.8 1368.93,1417.54 " fill="none" id="5af95a64feeac3324aac09e4338e7a4b-93e34d9e11e85c356536e5781028c4e3" style="stroke:#181818;stroke-width:1.0;"/></g><!--link 5af95a64feeac3324aac09e4338e7a4b to aed8c235d693dd99e45f63772f87bb05--><g id="link_5af95a64feeac3324aac09e4338e7a4b_aed8c235d693dd99e45f63772f87bb05"><path codeLine="154" d="M1275.03,1015.19 C1266.04,1034.23 1255.97,1055.57 1246.98,1074.61 " fill="none" id="5af95a64feeac3324aac09e4338e7a4b-aed8c235d693dd99e45f63772f87bb05" style="stroke:#181818;stroke-width:1.0;"/></g><!--link 5af95a64feeac3324aac09e4338e7a4b to 4b2d219c1ae18ceeed1cbc64c3c1385e--><g id="link_5af95a64feeac3324aac09e4338e7a4b_4b2d219c1ae18ceeed1cbc64c3c1385e"><path codeLine="155" d="M1426.47,1015.36 C1429.6,1018.97 1432.47,1022.82 1435,1026.91 C1477.93,1096.24 1484.23,1145.38 1435,1210.39 C1418.17,1232.62 1368.68,1250.93 1313.4,1265.15 " fill="none" id="5af95a64feeac3324aac09e4338e7a4b-4b2d219c1ae18ceeed1cbc64c3c1385e" style="stroke:#181818;stroke-width:1.0;"/></g><!--link aed8c235d693dd99e45f63772f87bb05 to 93e34d9e11e85c356536e5781028c4e3--><g id="link_aed8c235d693dd99e45f63772f87bb05_93e34d9e11e85c356536e5781028c4e3"><path codeLine="156" d="M1309.92,1186.67 C1329.31,1203.28 1347.24,1223.34 1358,1246.39 C1383.45,1300.91 1366.87,1370.13 1349.1,1417.56 " fill="none" id="aed8c235d693dd99e45f63772f87bb05-93e34d9e11e85c356536e5781028c4e3" style="stroke:#181818;stroke-width:1.0;"/></g><!--link aed8c235d693dd99e45f63772f87bb05 to 4b2d219c1ae18ceeed1cbc64c3c1385e--><g id="link_aed8c235d693dd99e45f63772f87bb05_4b2d219c1ae18ceeed1cbc64c3c1385e"><path codeLine="157" d="M1185.94,1186.68 C1173.8,1205.72 1160.21,1227.05 1148.07,1246.09 " fill="none" id="aed8c235d693dd99e45f63772f87bb05-4b2d219c1ae18ceeed1cbc64c3c1385e" style="stroke:#181818;stroke-width:1.0;"/></g><!--link 4b2d219c1ae18ceeed1cbc64c3c1385e to 93e34d9e11e85c356536e5781028c4e3--><g id="link_4b2d219c1ae18ceeed1cbc64c3c1385e_93e34d9e11e85c356536e5781028c4e3"><path codeLine="158" d="M1181.51,1358.16 C1205.21,1377.2 1231.77,1398.53 1255.48,1417.58 " fill="none" id="4b2d219c1ae18ceeed1cbc64c3c1385e-93e34d9e11e85c356536e5781028c4e3" style="stroke:#181818;stroke-width:1.0;"/></g><!--SRC=[hPXDRzj648Rl-XL2q9C15VlzqLk17dlBiIY4sTrPIuaaoYHjrmZytxlwYA8eX6SSv6I3MZvyP-QTsILXi-cUj-l_rhlxsQuhEF_mSJTycCCmjmPgDYxwN8Kk0JNc2C8cwNGGJgdvbzayTzjzjyFTE4VbOXKsIXaSOW6TTN9Ee0isPebg_i_ixcxO3KlCmsA4uVCYhp1_NepTVftlxcQp4ViUQjTlvplOuX_pSRKUhYwEB_js4Pw7vG5ol6is-tVsJO1t4NLG8KMblSb6g-oKXf80d3RQNWJqPLZa_UC2Dj1lVztpioz9PGdPwo9Qt4ws11HdCWZdjDENv__sPTDbsFn-tyD-zR0vyWwFV9rIyGbobuRbzThJiz-XB4QlXOl6Dtag16ErYjQuN4JLrM7vGHcKLPTPkhwjPAfwFPlihvV6wKewEirXIjueBPf26uskjYcLofjQl4mYtJXD-u32UP5poDgMea11Ji78B6ijzHXEEVEN-xuhZtbSh7TFxUQkVtaZcijD8wGDJWPpi-GgeZ_twtiOyHbUZZ4bq15i5G3MU2zjDgMs6aXZTDJUtdIFph9WYxGj18135eICCe9hbP8nccDCS7d2yYHuCM3_XFq6Xs7HVdohJllrydplP5XNlozx7CR3XUlWFZwSPW9Maq1LhKCkxLydBHOLHAqYAUzz-Jugr_eWHjL6W6gpnCfgX0vjag2kMkHwDjx3H4iylACbsjg7HtoShjUtNw-Y-HksgS0n86707uQLJQ9rQWcsWCHcnpP4f4tXndgn6Qn2QsUXeEWsQtoCEfbWKRQsmjECsHpfbvY-fdDvlax5TRk-FkxokEvsa-7ThlckxuEJ8URaMcsmjWYBIhuuAQnK22tUQxNdFx3VBrS8ct6rF8vdx9TFwbtJyKr55cgqu4n5XAnrSmLa4T4qFw47awRozxNExqZXn2q_dqN04h9gSyP5NKfiQcrrsdjLWqz9JDPyMArtByj3TwupdkIU7pAb-hJwK7Ven_Ewz-iqIHKbsruBpOmPsnuiSyfj_scpHJU7JkcyokTbihsLsFFwon3y-Qn6ZTgKY59Yi6sAEwiTMX-aK24RrDTgVzXhsX7YbixQeoRkuof_dP47d4LPa8SG7eKwIl0erBRFer13XAc569nC2c4Q7eLgQ1w5QZSUXHg8F0fr8fgHPsEMwrWKqdKi2kawdXRATJmAvJeMXNGTYqAwZaKXNSUYaAuZtuXOVc5HIB_mj51-uL4elx0ef5zO5D8lB0hf5nQ5z0lvdihABej2-eMdXV8BYq9McaKXAysYa9LcKSXAaw_ml9C7XqAVF5WKykJ1eT0d3mw5FdbmA6IboKyIFDTHRyoyRkHGwCd0eT3ToA7ychoGDIBVy5bvOL78lB0eP5vO538lv7S6LbvO538lB0gP5_8h12iY5eNKGdvfu6Zv7m00]--></g></svg>